<svg xmlns="http://www.w3.org/2000/svg" viewBox="-660 -3 3179 3179">
	<rect x="-660" y="-3" width="3179" height="3179" rx="400" ry="400" fill="#ffffff"/>
	<path d="M 0 3073 C 0 3173 30 3173 100 3173 L 800 3173 C 870 3173 900 3173 900 3063 L 900 1183 C 580 1203 320 1203 0 1183 L 0 3073 M 0 1163 C 320 1183 580 1183 900 1163 L 880 1063 C 580 1083 320 1083 20 1063 L 0 1163 M 1584.471 569.724 C 1327.254 725.414 1114.274 874.544 880 1063 C 966.036 1185.873 1152.861 1470.12 1236.425 1484.855 C 1319.988 1499.589 1503.482 1395.521 1593.589 1332.428 C 1675.504 1275.07 1844.246 1132.5 1858.98 1048.937 C 1873.715 965.373 1676.243 700.789 1584.471 569.724 M 209 1032 C 57 932 105 656 147 564 C 221 360 189 204 141 150 C 275 230 255 476 223 568 C 147 774 141 928 209 1032 M 475 1032 C 357 960 313 722 405 492 C 431 418 507 142 393 0 C 543 82 527 392 477 504 C 401 712 389 912 475 1032 M 719 1032 C 621 978 573 776 659 556 C 683 510 737 266 651 152 C 763 218 775 418 733 566 C 647 792 659 948 719 1032" stroke="#ffffff" stroke-width="3" fill="#101010"/>
</svg>
